<svg width="78" height="70" viewBox="0 0 78 70" fill="none" xmlns="http://www.w3.org/2000/svg">
<path d="M74.907 48.3385L54.3853 29.7337L56.6629 19.6373C57.2506 19.8438 57.8754 19.9517 58.5062 19.9558H58.5218C61.4196 19.9866 63.7966 17.8974 63.8309 15.2893C63.8653 12.6812 61.5438 10.542 58.6459 10.5111C55.748 10.4803 53.3711 12.5695 53.3367 15.1776C53.3295 15.7357 53.432 16.2905 53.6399 16.8163L41.5844 18.1405L21.9195 0.35C21.6783 0.128479 21.349 0.00247917 21.0044 0C20.6641 0.00160417 20.3382 0.123521 20.097 0.3395L16.4207 3.6295C15.9146 4.08508 15.9146 4.82358 16.4207 5.27917L18.3988 7.08517C10.7351 19.7681 13.2243 35.4741 24.5225 45.7228C24.6262 45.8121 24.7464 45.8843 24.8777 45.9363C24.796 46.3311 24.7534 46.7317 24.7507 47.1333V60.6667H9.1951C5.61733 60.6705 2.71784 63.28 2.71362 66.5V68.8333C2.71362 69.4776 3.29404 70 4.00992 70H63.6395C64.3554 70 64.9358 69.4776 64.9358 68.8333V66.5C64.9316 63.28 62.0321 60.6705 58.4544 60.6667H42.8988V54.6688C45.3357 55.1288 47.8186 55.3633 50.3084 55.3688C56.2831 55.363 62.1626 54.0225 67.4195 51.4675L69.4081 53.2677C69.6493 53.4892 69.9786 53.6152 70.3232 53.6177C70.6635 53.6161 70.9894 53.4941 71.2307 53.2782L74.907 49.9882C75.413 49.5326 75.413 48.7941 74.907 48.3385ZM56.694 13.6348C57.7092 12.726 59.3507 12.7301 60.3604 13.6437C61.3702 14.5574 61.3657 16.0348 60.3505 16.9435C59.8646 17.3785 59.207 17.6226 58.5216 17.6225H58.5138C57.0821 17.6158 55.9272 16.5658 55.9347 15.2771C55.9382 14.6602 56.2131 14.0699 56.699 13.6348H56.694ZM53.6425 21.301L52.1881 27.7445L49.331 25.158L53.6425 21.301ZM52.1699 19.3282L47.5033 23.5037L43.8931 20.237L52.1699 19.3282ZM58.4544 63C60.6022 63 62.3433 64.567 62.3433 66.5V67.6667H5.30622V66.5C5.30622 64.567 7.0473 63 9.1951 63H58.4544ZM40.3062 58.3333V60.6667H27.3433V58.3333H40.3062ZM27.3433 56V47.1333C27.3433 44.303 30.2508 42 33.8247 42C37.3986 42 40.3062 44.303 40.3062 47.1333V56H27.3433ZM42.8988 52.29V47.1333C42.8988 43.0162 38.8284 39.6667 33.8247 39.6667C30.5895 39.622 27.5643 41.1041 25.8499 43.5738C15.9874 34.2249 13.7665 20.2875 20.3117 8.82073L65.5244 49.7455C58.5428 52.9419 50.5397 53.8418 42.8988 52.29ZM70.3375 50.7943L68.511 49.1412L20.9914 6.11567L19.1571 4.46133L20.9914 2.81633L40.2777 20.272C40.2868 20.272 40.292 20.2872 40.301 20.293L72.1769 49.1493L70.3375 50.7943Z" fill="#212121"/>
<path d="M33.8363 44.3333H33.8247C31.6769 44.3303 29.9332 45.895 29.9299 47.828C29.9267 49.761 31.6652 51.3303 33.813 51.3333H33.8247C35.9725 51.3362 37.7161 49.7715 37.7194 47.8385C37.7226 45.9055 35.9841 44.3362 33.8363 44.3333ZM34.7437 48.6604C34.4997 48.8789 34.169 49.0011 33.8247 48.9999C33.1088 48.9966 32.5314 48.4716 32.5352 47.8273C32.5369 47.5188 32.6744 47.2237 32.9172 47.0061C33.1585 46.7901 33.4844 46.6682 33.8247 46.6666C34.5405 46.6699 35.1179 47.1949 35.1141 47.8392C35.1124 48.1477 34.975 48.4428 34.7321 48.6604H34.7437Z" fill="#2196F3"/>
</svg>
