<svg width="78" height="70" viewBox="0 0 78 70" fill="none" xmlns="http://www.w3.org/2000/svg">
<path d="M77.8262 9.89643C77.6732 9.47519 77.2688 9.1673 76.7801 9.10304L72.1367 8.49518L70.0587 4.70815C69.6232 3.91011 68.17 3.91011 67.7345 4.70815L65.6565 8.49518L61.013 9.10318C60.5243 9.1673 60.1199 9.47424 59.9656 9.89657C59.814 10.3189 59.9396 10.7832 60.2935 11.0925L63.6549 14.0407L62.8616 18.2035C62.7787 18.641 62.9783 19.0831 63.3763 19.3445C63.7795 19.6083 64.3057 19.6408 64.7426 19.4331L68.896 17.4672L73.0494 19.4331C73.2387 19.5229 73.4474 19.5672 73.6536 19.5672C73.9219 19.5672 74.1903 19.4926 74.4159 19.3444C74.8151 19.0831 75.0147 18.6408 74.9306 18.2033L74.1373 14.0406L77.4986 11.0923C77.8508 10.782 77.9779 10.3188 77.8262 9.89643ZM71.8399 12.7992C71.5353 13.0663 71.3953 13.4536 71.4679 13.8317L71.932 16.2689L69.5002 15.1185C69.3109 15.0287 69.1035 14.9844 68.896 14.9844C68.6886 14.9844 68.4825 15.0287 68.2919 15.1185L65.8599 16.2689L66.324 13.8317C66.3966 13.4536 66.2565 13.0675 65.952 12.7992L63.9829 11.0725L66.7026 10.7166C67.1252 10.6618 67.4895 10.4227 67.6787 10.0784L68.8946 7.86175L70.1105 10.0784C70.2998 10.4225 70.6641 10.6618 71.0867 10.7166L73.8064 11.0725L71.8399 12.7992Z" fill="#2196F3"/>
<path d="M63.6303 44.8923H61.0376V47.2257H63.6303V44.8923Z" fill="#2196F3"/>
<path d="M63.6303 49.5591H61.0376V51.8925H63.6303V49.5591Z" fill="#2196F3"/>
<path d="M66.223 47.2257H63.6304V49.5591H66.223V47.2257Z" fill="#2196F3"/>
<path d="M61.038 47.2257H58.4453V49.5591H61.038V47.2257Z" fill="#2196F3"/>
<path d="M54.556 57.7258H51.9634V60.0592H54.556V57.7258Z" fill="#2196F3"/>
<path d="M54.556 62.3926H51.9634V64.726H54.556V62.3926Z" fill="#2196F3"/>
<path d="M57.1483 60.0593H54.5557V62.3927H57.1483V60.0593Z" fill="#2196F3"/>
<path d="M51.9633 60.0593H49.3706V62.3927H51.9633V60.0593Z" fill="#2196F3"/>
<path d="M39.0004 53.0592H36.4077V55.3926H39.0004V53.0592Z" fill="#2196F3"/>
<path d="M39.0004 57.7258H36.4077V60.0592H39.0004V57.7258Z" fill="#2196F3"/>
<path d="M41.5927 55.3925H39V57.7259H41.5927V55.3925Z" fill="#2196F3"/>
<path d="M36.4076 55.3925H33.8149V57.7259H36.4076V55.3925Z" fill="#2196F3"/>
<path d="M14.37 13.3918H11.7773V15.7253H14.37V13.3918Z" fill="#2196F3"/>
<path d="M14.37 18.0586H11.7773V20.392H14.37V18.0586Z" fill="#2196F3"/>
<path d="M16.9628 15.7252H14.3701V18.0586H16.9628V15.7252Z" fill="#2196F3"/>
<path d="M11.7777 15.7252H9.18506V18.0586H11.7777V15.7252Z" fill="#2196F3"/>
<path d="M60.1819 30.9739C59.4832 30.1257 58.4578 29.5797 57.2937 29.4326C56.1245 29.2833 54.9707 29.5598 54.0374 30.2026L50.9949 32.3014L50.9935 32.3027L46.3811 35.4025L43.0807 34.2195C48.9659 31.843 53.0792 26.5451 53.0792 20.3943C53.0792 12.0315 45.4893 5.22742 36.1597 5.22742C26.8302 5.22742 19.2404 12.0315 19.2404 20.3943C19.2404 23.4254 20.2475 26.244 21.9626 28.6158L15.2451 28.5633C15.2411 28.5633 15.2373 28.5633 15.2334 28.5633C15.2126 28.5633 15.1959 28.5726 15.1764 28.5739C15.0481 28.5785 14.9223 28.6019 14.7992 28.6416C14.7681 28.6521 14.7357 28.658 14.7059 28.6707C14.6905 28.6765 14.6748 28.6776 14.6593 28.6846L6.80105 32.1765C6.79968 32.1765 6.79847 32.1765 6.79847 32.1776L2.19644 34.1693C2.14585 34.1891 2.09405 34.2159 2.04347 34.2463C0.209127 35.3452 -0.415687 37.5037 0.589059 39.2676C1.1244 40.2057 2.03572 40.8964 3.15577 41.2125C3.5875 41.3338 4.0282 41.3934 4.46631 41.3934C5.17027 41.3934 5.8677 41.2382 6.50664 40.9314L9.8797 39.3167L15.3826 36.7594L18.6804 36.7418L5.45404 48.5884C5.45283 48.5897 5.45146 48.5897 5.45009 48.5908L2.19629 51.5074C1.42761 52.1958 1.00499 53.1092 1.00499 54.0835C1.00499 55.0566 1.42761 55.9723 2.19629 56.6619C2.98578 57.3689 4.0241 57.7236 5.06241 57.7236C6.1021 57.7236 7.13905 57.3689 7.93112 56.6619L11.1252 53.7989L15.3564 50.9556L17.5459 52.918L13.2641 56.7552C13.2629 56.7564 13.2616 56.7564 13.2602 56.7575L10.0064 59.6742C9.23772 60.3626 8.8151 61.276 8.8151 62.2503C8.8151 63.2233 9.23772 64.1391 10.0064 64.8287C10.7959 65.5357 11.8356 65.8903 12.8739 65.8903C13.9122 65.8903 14.9519 65.5357 15.7426 64.8287L18.9976 61.912L24.2049 57.2453C24.2062 57.2441 24.2062 57.243 24.2074 57.2418L26.6614 55.0542L26.6523 55.046C26.6678 55.0321 26.6898 55.0273 26.7055 55.0123L39.2616 42.6349L47.6981 43.7153C47.759 43.7235 47.8199 43.7269 47.8808 43.7269C48.0377 43.7269 48.1894 43.6931 48.3358 43.643C48.3786 43.629 48.4161 43.6103 48.4564 43.5917C48.503 43.5706 48.5523 43.559 48.5965 43.5322L56.4067 38.8655C56.4353 38.848 56.4508 38.82 56.478 38.8014C56.5091 38.7793 56.548 38.77 56.5764 38.7454L59.6668 36.1401C61.2747 34.7841 61.4964 32.5628 60.1819 30.9739ZM5.28937 38.8722C4.86812 39.0753 4.38975 39.116 3.93219 38.9854C3.47843 38.8583 3.11034 38.5794 2.89508 38.2026C2.50361 37.5165 2.73041 36.6811 3.41614 36.2297L6.60903 34.8472L7.37771 36.869L7.70052 37.7183L5.28937 38.8722ZM13.7893 34.8741L10.0261 36.6241L9.40528 34.9907L8.95942 33.817L13.8855 31.6282L13.7893 34.8741ZM50.4893 20.3919C50.4893 22.4009 49.9565 24.2957 49.0335 25.9908L38.8704 21.8363C38.7641 20.5821 38.0409 19.4843 36.9545 18.8005L40.5129 8.16856C46.292 9.82302 50.4893 14.6752 50.4893 20.3919ZM21.8356 20.3919C21.8356 13.316 28.2627 7.55837 36.1625 7.55837C36.777 7.55837 37.3784 7.60499 37.9734 7.67267L34.4928 18.0714C34.4462 18.0702 34.4021 18.0585 34.3541 18.0585C31.8444 18.0585 29.8027 19.8902 29.8027 22.142C29.8027 24.3936 31.8444 26.2254 34.3541 26.2254C36.0418 26.2254 37.5002 25.3866 38.2871 24.1592L47.675 27.9976C45.0628 31.1616 40.8822 33.2255 36.1623 33.2255C28.2627 33.2255 21.8356 27.4679 21.8356 20.3919ZM36.3129 22.142C36.3129 23.1068 35.4339 23.892 34.3541 23.892C33.2743 23.892 32.3954 23.1068 32.3954 22.142C32.3954 21.1771 33.2743 20.3919 34.3541 20.3919C35.4339 20.3919 36.3129 21.1771 36.3129 22.142ZM6.10225 55.0075C5.52803 55.5196 4.59847 55.5185 4.02561 55.0087C3.74944 54.7602 3.59783 54.4324 3.59783 54.0835C3.59783 53.7358 3.74944 53.408 4.02561 53.1619L6.364 51.0653L8.43289 52.9192L6.10225 55.0075ZM13.9137 63.1744C13.3395 63.6865 12.4087 63.6878 11.8357 63.1756C11.5595 62.927 11.4079 62.5993 11.4079 62.2504C11.4079 61.9027 11.5595 61.5749 11.8357 61.3288L14.1756 59.2311L15.1544 60.1073L16.2459 61.085L13.9137 63.1744ZM22.3761 55.5862C22.3748 55.5873 22.3736 55.5873 22.3722 55.5886L18.0826 59.4386L17.1039 58.5624L16.0124 57.5847L20.298 53.7451C20.298 53.7451 20.298 53.7451 20.298 53.744C20.2994 53.7428 20.3006 53.7428 20.3019 53.7417C20.3992 53.6542 20.4601 53.5492 20.5198 53.4454C20.5366 53.4151 20.569 53.3894 20.5833 53.3579C20.6235 53.2681 20.6299 53.1713 20.6456 53.0767C20.6533 53.023 20.6793 52.9729 20.6793 52.918C20.6793 52.8398 20.6481 52.764 20.6301 52.6869C20.6146 52.6169 20.6146 52.5457 20.5846 52.4781C20.5354 52.3685 20.4511 52.2717 20.363 52.1771C20.3384 52.1514 20.3293 52.1187 20.3021 52.0942C20.3021 52.0942 20.3021 52.0942 20.3007 52.0942C20.2993 52.0931 20.2993 52.0907 20.2981 52.0896L16.3923 48.5895C16.3509 48.5522 16.2977 48.537 16.251 48.5056C16.1824 48.4577 16.1163 48.4134 16.0397 48.3795C15.9659 48.3469 15.8907 48.327 15.8129 48.3083C15.73 48.2872 15.6496 48.271 15.5627 48.2651C15.4836 48.2604 15.4098 48.2674 15.3308 48.2756C15.2439 48.2849 15.1623 48.2954 15.078 48.3199C14.9963 48.3433 14.9238 48.3794 14.8486 48.4179C14.8006 48.4424 14.7462 48.4506 14.7008 48.481L10.3906 51.3767L8.20107 49.4144L14.0319 44.1946L24.6307 53.576L22.3761 55.5862ZM38.9496 40.2373C38.9121 40.2326 38.877 40.2455 38.8395 40.2431C38.7448 40.2385 38.6541 40.2444 38.5595 40.2583C38.4857 40.2699 38.4156 40.2828 38.3456 40.3049C38.2626 40.3306 38.1875 40.3656 38.1109 40.4076C38.0383 40.4473 37.9722 40.4892 37.9087 40.5417C37.8776 40.5662 37.84 40.578 37.8115 40.6059L26.3921 51.8621L15.8725 42.5507L22.7585 36.386C23.2654 35.931 23.268 35.1924 22.7625 34.7351C22.5071 34.5052 22.1714 34.392 21.8356 34.3933V34.3922L16.4429 34.4213L16.5104 30.905L24.0549 30.9633C27.1298 33.7937 31.4179 35.5589 36.1625 35.5589C37.2254 35.5589 38.2625 35.4598 39.2723 35.2906C39.3695 35.3606 39.4653 35.4318 39.5873 35.4761L45.4441 37.5761L45.8148 39.2351L46.2478 41.1717L38.9496 40.2373ZM48.7718 40.6269L48.0108 37.219L51.5264 34.8565L52.4468 35.9554L53.8274 37.6051L48.7718 40.6269ZM57.8952 34.4341L55.8586 36.1515L53.5953 33.4471L55.6162 32.053C55.9934 31.7917 56.4692 31.6855 56.9358 31.7403C57.4051 31.7998 57.82 32.0203 58.1025 32.3621C58.6289 33.0003 58.5394 33.8905 57.8952 34.4341Z" fill="#212121"/>
<path d="M33.1721 40.5651L27.9635 35.8984C27.4593 35.4447 26.6399 35.4447 26.1343 35.8984L20.927 40.5651C20.6834 40.7857 20.5459 41.0819 20.5459 41.3923C20.5459 41.7026 20.682 42.0002 20.927 42.2195L26.1343 46.8861C26.3871 47.1124 26.719 47.2256 27.0496 47.2256C27.3801 47.2256 27.7119 47.1124 27.9635 46.8861L33.1721 42.2195C33.4157 42.0002 33.5544 41.7026 33.5544 41.3923C33.5544 41.0819 33.417 40.7844 33.1721 40.5651ZM27.0496 44.4129L23.6791 41.3923L27.0496 38.3717L30.4212 41.3923L27.0496 44.4129Z" fill="#212121"/>
<path d="M41.8298 11.0923L41.2036 13.358C41.376 13.3966 45.4271 14.3462 45.4271 18.0586H48.0198C48.0196 13.6461 43.9713 11.5718 41.8298 11.0923Z" fill="#212121"/>
<path d="M48.0199 20.392H45.4272V22.7254H48.0199V20.392Z" fill="#212121"/>
</svg>