<svg width="79" height="70" viewBox="0 0 79 70" fill="none" xmlns="http://www.w3.org/2000/svg">
<path d="M76.5127 33.4715C76.5085 14.9819 59.8507 -0.00373771 39.3061 6.99302e-07C18.7621 0.00373911 2.11133 14.9963 2.11548 33.4859C2.11904 48.0502 12.5836 60.9413 27.9995 65.3713C28.1466 65.413 28.2997 65.4343 28.4534 65.4338C28.7466 65.4333 29.0338 65.3628 29.286 65.2287C29.6141 65.0541 29.8592 64.7764 29.9743 64.449L39.3684 37.6521C41.9366 37.6404 44.0075 35.7568 43.9939 33.4459C43.9808 31.1345 41.8885 29.2706 39.3203 29.2824C38.6296 29.285 37.9478 29.4282 37.3271 29.7011L24.9168 18.5302C24.3008 17.9951 23.3199 18.0106 22.7254 18.5644C22.145 19.1054 22.145 19.962 22.7254 20.503L35.1291 31.6792C34.1773 33.4277 34.7215 35.5383 36.4328 36.7303L27.482 62.2647C9.79285 56.4002 0.735237 38.7405 7.25133 22.8203C13.7674 6.90002 33.3893 -1.25183 51.0785 4.61266C68.7676 10.4771 77.8253 28.1374 71.3092 44.0571C68.1256 51.8351 61.5846 58.1252 53.172 61.4989L52.2047 57.3989C52.0279 56.6454 51.2049 56.1636 50.3676 56.3233C50.1035 56.3741 49.8584 56.4857 49.6567 56.6475L40.3309 64.1409C39.6912 64.653 39.6342 65.5347 40.2039 66.1105C40.389 66.2974 40.6264 66.4362 40.8922 66.5126L52.7987 69.9327C53.6135 70.1682 54.4864 69.765 54.748 69.0312C54.8311 68.7994 54.8448 68.5527 54.789 68.3145L53.8384 64.2915C67.6058 59.0678 76.5447 46.918 76.5127 33.4715ZM39.3144 32.0766C40.17 32.0766 40.8643 32.7014 40.8643 33.4715C40.8643 34.2422 40.17 34.8665 39.3144 34.8665C38.4581 34.8665 37.7644 34.2422 37.7644 33.4715C37.7644 32.7014 38.4581 32.0766 39.3144 32.0766ZM44.4194 64.5916L49.7279 60.3298L51.193 66.543L44.4194 64.5916Z" fill="#212121"/>
<path d="M37.7642 6.96735V9.75726C37.7642 10.5279 38.4578 11.1522 39.3141 11.1522C40.1698 11.1522 40.8641 10.5279 40.8641 9.75726V6.96735C40.8641 6.19724 40.1698 5.57239 39.3141 5.57239C38.4578 5.57239 37.7642 6.19724 37.7642 6.96735Z" fill="#2196F3"/>
<path d="M9.86514 32.0765C9.00887 32.0765 8.31519 32.7014 8.31519 33.4715C8.31519 34.2421 9.00887 34.8665 9.86514 34.8665H12.965C13.8213 34.8665 14.515 34.2421 14.515 33.4715C14.515 32.7014 13.8213 32.0765 12.965 32.0765H9.86514Z" fill="#2196F3"/>
<path d="M68.7627 34.8665C69.6189 34.8665 70.3126 34.2421 70.3126 33.4715C70.3126 32.7014 69.6189 32.0765 68.7627 32.0765H65.6627C64.8071 32.0765 64.1128 32.7014 64.1128 33.4715C64.1128 34.2421 64.8071 34.8665 65.6627 34.8665H68.7627Z" fill="#2196F3"/>
</svg>