<svg width="79" height="70" viewBox="0 0 79 70" fill="none" xmlns="http://www.w3.org/2000/svg">
<path d="M37.0552 32.7351H39.6464V43.2296H37.0552V32.7351Z" fill="#2196F3"/>
<path d="M47.4199 37.3993H50.0112V43.2296H47.4199V37.3993Z" fill="#2196F3"/>
<path d="M26.6904 40.8975H29.2817V43.2296H26.6904V40.8975Z" fill="#2196F3"/>
<path d="M18.9165 39.7314H21.5077V43.2296H18.9165V39.7314Z" fill="#2196F3"/>
<path d="M4.66469 61.8865H66.8543C69.0008 61.8865 70.7412 60.3201 70.7412 58.3883V53.7241C70.7412 51.7922 69.0008 50.2259 66.8543 50.2259H65.5587V21.1468L72.9181 14.8724C74.6261 15.6302 76.6936 15.1702 77.8114 13.7815C78.9299 12.3934 78.773 10.482 77.4407 9.25678C76.1084 8.0315 73.9891 7.84874 72.4221 8.82406C70.8557 9.79995 70.299 11.6498 71.1037 13.2036L65.5587 17.9344V15.2442C65.5587 13.3124 63.8184 11.746 61.6719 11.746H9.84716C7.70066 11.746 5.9603 13.3124 5.9603 15.2442V50.2259H4.66469C2.51819 50.2259 0.777832 51.7922 0.777832 53.7241V58.3883C0.777832 60.3201 2.51819 61.8865 4.66469 61.8865ZM74.628 10.58C75.3435 10.58 75.9237 11.1021 75.9237 11.746C75.9237 12.39 75.3435 12.9121 74.628 12.9121C73.9125 12.9121 73.3324 12.39 73.3324 11.746C73.3324 11.1021 73.9125 10.58 74.628 10.58ZM8.55154 15.2442C8.55154 14.6003 9.13166 14.0781 9.84716 14.0781H61.6719C62.3874 14.0781 62.9675 14.6003 62.9675 15.2442V20.1413L60.3762 22.3573V17.5763C60.3762 16.9324 59.7961 16.4103 59.0806 16.4103H12.4384C11.7229 16.4103 11.1428 16.9324 11.1428 17.5763V46.7277C11.1428 47.3717 11.7229 47.8938 12.4384 47.8938H59.0806C59.7961 47.8938 60.3762 47.3717 60.3762 46.7277V25.5651L62.9675 23.3554V50.2259H8.55154V15.2442ZM20.2121 30.4029C18.4591 30.3984 16.9199 31.4494 16.4537 32.9702C15.9874 34.491 16.7092 36.104 18.2168 36.909C19.7237 37.7141 21.6437 37.512 22.9033 36.4148L27.407 38.4486C27.9301 38.6843 28.5647 38.5739 28.9537 38.1804L38.5272 28.487L47.9382 34.8337C48.443 35.1742 49.1478 35.1378 49.6058 34.7477L57.785 27.7748V45.5617H13.734V18.7424H57.785V24.5618L48.6183 32.3746L39.1282 25.9716C38.5892 25.6083 37.8307 25.6766 37.3828 26.1293L27.6777 35.9571L24.0496 34.3241C24.0762 34.1841 24.0926 34.0429 24.099 33.9011C24.099 31.9693 22.3586 30.4029 20.2121 30.4029ZM21.5077 33.9011C21.5077 34.5451 20.9276 35.0672 20.2121 35.0672C19.4966 35.0672 18.9165 34.5451 18.9165 33.9011C18.9165 33.2572 19.4966 32.735 20.2121 32.735C20.9276 32.735 21.5077 33.2572 21.5077 33.9011ZM29.2814 52.558H42.2376V53.7241C42.2376 54.368 41.6575 54.8901 40.942 54.8901H30.577C29.8615 54.8901 29.2814 54.368 29.2814 53.7241V52.558ZM3.36907 53.7241C3.36907 53.0801 3.94919 52.558 4.66469 52.558H26.6902V53.7241C26.6902 55.6559 28.4305 57.2222 30.577 57.2222H40.942C43.0885 57.2222 44.8288 55.6559 44.8288 53.7241V52.558H66.8543C67.5698 52.558 68.15 53.0801 68.15 53.7241V58.3883C68.15 59.0322 67.5698 59.5543 66.8543 59.5543H4.66469C3.94919 59.5543 3.36907 59.0322 3.36907 58.3883V53.7241Z" fill="#212121"/>
</svg>