<svg width="23" height="20" viewBox="0 0 23 20" fill="none" xmlns="http://www.w3.org/2000/svg">
<path d="M22.4444 3.10942C21.618 3.47192 20.7374 3.7122 19.8194 3.82887C20.7638 3.26498 21.4847 2.37887 21.8236 1.31081C20.943 1.83581 19.9708 2.20665 18.9347 2.41359C18.0986 1.52331 16.9069 0.971924 15.6069 0.971924C13.0847 0.971924 11.0541 3.01915 11.0541 5.52887C11.0541 5.88998 11.0847 6.2372 11.1597 6.56776C7.37217 6.38303 4.02078 4.56776 1.76939 1.80248C1.37633 2.48442 1.14578 3.26498 1.14578 4.10526C1.14578 5.68303 1.95828 7.08165 3.16939 7.89137C2.43745 7.87748 1.71939 7.66498 1.11106 7.33026C1.11106 7.34415 1.11106 7.3622 1.11106 7.38026C1.11106 9.59414 2.69022 11.433 4.76106 11.8566C4.39022 11.958 3.98606 12.0066 3.56661 12.0066C3.27494 12.0066 2.9805 11.99 2.70411 11.9289C3.29439 13.733 4.96939 15.0594 6.96106 15.1025C5.41106 16.315 3.443 17.0455 1.31245 17.0455C0.938834 17.0455 0.580501 17.0289 0.222168 16.983C2.24022 18.2844 4.63189 19.0275 7.21105 19.0275C15.5944 19.0275 20.1777 12.083 20.1777 6.06359C20.1777 5.8622 20.1708 5.66776 20.1611 5.4747C21.0652 4.83303 21.8249 4.03165 22.4444 3.10942Z" />
</svg>
