<svg width="23" height="24" viewBox="0 0 23 24" fill="none" xmlns="http://www.w3.org/2000/svg">
<g clip-path="url(#clip0_7_1831)">
<path d="M22.4388 23.1109V23.1099H22.4443V14.9599C22.4443 10.9729 21.586 7.90161 16.9249 7.90161C14.6841 7.90161 13.1804 9.13124 12.5665 10.297H12.5017V8.27383H8.08228V23.1099H12.6841V15.7636C12.6841 13.8294 13.0508 11.959 15.4462 11.959C17.8064 11.959 17.8415 14.1664 17.8415 15.8877V23.1109H22.4388Z" fill="#AFB1B8"/>
<path d="M0.588867 8.27466H5.19627V23.1108H0.588867V8.27466Z" fill="#AFB1B8"/>
<path d="M2.89069 0.888672C1.41754 0.888672 0.222168 2.08404 0.222168 3.55719C0.222168 5.03034 1.41754 6.25071 2.89069 6.25071C4.36383 6.25071 5.5592 5.03034 5.5592 3.55719C5.55828 2.08404 4.36291 0.888672 2.89069 0.888672V0.888672Z" fill="#AFB1B8"/>
</g>
</svg>