<svg>
    <symbol id="instagram" viewBox="0 0 23 24">
        <g clip-path="url(#clip0_7_1847)">
            <path d="M22.4224 7.42206C22.3703 6.24131 22.1794 5.42956 21.9059 4.72616C21.6237 3.97952 21.1896 3.31105 20.6208 2.75536C20.0651 2.19101 19.3923 1.75249 18.6543 1.47472C17.9468 1.2012 17.1393 1.01026 15.9585 0.958198C14.769 0.901729 14.3913 0.888672 11.3743 0.888672C8.35718 0.888672 7.97953 0.901729 6.79437 0.953789C5.61362 1.00585 4.80187 1.19696 4.09864 1.47031C3.35183 1.75249 2.68337 2.1866 2.12767 2.75536C1.56332 3.31105 1.12497 3.98393 0.847038 4.72192C0.573513 5.42956 0.382572 6.2369 0.330512 7.41766C0.274044 8.60723 0.260986 8.98487 0.260986 12.002C0.260986 15.019 0.274044 15.3967 0.326103 16.5818C0.378163 17.7626 0.569274 18.5743 0.842798 19.2777C1.12497 20.0244 1.56332 20.6928 2.12767 21.2485C2.68337 21.8129 3.35624 22.2514 4.09423 22.5292C4.80187 22.8027 5.60921 22.9936 6.79013 23.0457C7.97512 23.0979 8.35294 23.1108 11.37 23.1108C14.3871 23.1108 14.7647 23.0979 15.9499 23.0457C17.1306 22.9936 17.9424 22.8027 18.6456 22.5292C20.1391 21.9518 21.3198 20.771 21.8972 19.2777C22.1706 18.5701 22.3617 17.7626 22.4138 16.5818C22.4658 15.3967 22.4789 15.019 22.4789 12.002C22.4789 8.98487 22.4745 8.60723 22.4224 7.42206ZM20.4213 16.495C20.3734 17.5803 20.1911 18.1663 20.0392 18.557C19.6658 19.5252 18.8975 20.2935 17.9293 20.6669C17.5386 20.8188 16.9484 21.0011 15.8673 21.0488C14.6952 21.101 14.3437 21.1139 11.3787 21.1139C8.41365 21.1139 8.05771 21.101 6.88984 21.0488C5.80456 21.0011 5.21851 20.8188 4.82781 20.6669C4.34605 20.4888 3.90753 20.2067 3.55159 19.8377C3.18259 19.4773 2.90042 19.0432 2.72237 18.5615C2.57043 18.1708 2.38814 17.5803 2.34049 16.4994C2.28826 15.3273 2.27537 14.9756 2.27537 12.0106C2.27537 9.04558 2.28826 8.68964 2.34049 7.52194C2.38814 6.43666 2.57043 5.85061 2.72237 5.45991C2.90042 4.97798 3.18259 4.53963 3.556 4.18352C3.91618 3.81452 4.35029 3.53235 4.83222 3.35446C5.22292 3.20253 5.81338 3.02023 6.89425 2.97241C8.06636 2.92035 8.41805 2.90729 11.3829 2.90729C14.3523 2.90729 14.7039 2.92035 15.8717 2.97241C16.957 3.02023 17.5431 3.20253 17.9338 3.35446C18.4155 3.53235 18.854 3.81452 19.21 4.18352C19.579 4.54386 19.8611 4.97798 20.0392 5.45991C20.1911 5.85061 20.3734 6.4409 20.4213 7.52194C20.4733 8.69405 20.4864 9.04558 20.4864 12.0106C20.4864 14.9756 20.4733 15.3229 20.4213 16.495Z" fill="#AFB1B8"/>
            <path d="M11.3746 6.29321C8.22304 6.29321 5.66602 8.85007 5.66602 12.0018C5.66602 15.1535 8.22304 17.7104 11.3746 17.7104C14.5263 17.7104 17.0832 15.1535 17.0832 12.0018C17.0832 8.85007 14.5263 6.29321 11.3746 6.29321ZM11.3746 15.7048C9.33003 15.7048 7.67158 14.0465 7.67158 12.0018C7.67158 9.95705 9.33003 8.29878 11.3746 8.29878C13.4193 8.29878 15.0776 9.95705 15.0776 12.0018C15.0776 14.0465 13.4193 15.7048 11.3746 15.7048Z" fill="#AFB1B8"/>
            <path d="M18.6416 6.06756C18.6416 6.80352 18.0449 7.40025 17.3088 7.40025C16.5728 7.40025 15.9761 6.80352 15.9761 6.06756C15.9761 5.33143 16.5728 4.73486 17.3088 4.73486C18.0449 4.73486 18.6416 5.33143 18.6416 6.06756Z" fill="#AFB1B8"/>
        </g>
    </symbol>
</svg>