<svg aria-hidden="true" style="position: absolute; width: 0; height: 0; overflow: hidden;" version="1.1" xmlns="http://www.w3.org/2000/svg" xmlns:xlink="http://www.w3.org/1999/xlink">
<defs>
<symbol id="icon-facebook" viewBox="0 0 32 32">
<path fill="#fff" style="fill: var(--color1, #fff)" d="M31.858 16c0 4.32-1.751 8.231-4.582 11.062s-6.742 4.582-11.062 4.582c-4.32 0-8.231-1.751-11.062-4.582s-4.582-6.742-4.582-11.062c0-4.32 1.751-8.231 4.582-11.062s6.742-4.582 11.062-4.582c4.32 0 8.231 1.751 11.062 4.582s4.582 6.742 4.582 11.062z"></path>
<path fill="#afb1b8" style="fill: var(--color2, #afb1b8)" d="M18.582 11.25h1.298v-2.261c-0.224-0.031-0.994-0.1-1.892-0.1-1.872 0-3.154 1.177-3.154 3.342v1.992h-2.066v2.528h2.066v6.361h2.533v-6.36h1.982l0.315-2.528h-2.297v-1.742c0.001-0.731 0.197-1.231 1.215-1.231z"></path>
</symbol>
<symbol id="icon-instagram-2" viewBox="0 0 31 32">
<path fill="#afb1b8" style="fill: var(--color2, #afb1b8)" d="M29.897 9.896c-0.069-1.574-0.324-2.657-0.689-3.595-0.376-0.996-0.955-1.887-1.713-2.628-0.741-0.752-1.638-1.337-2.622-1.708-0.943-0.365-2.020-0.619-3.594-0.689-1.586-0.075-2.090-0.093-6.112-0.093s-4.526 0.017-6.107 0.087c-1.574 0.069-2.657 0.324-3.594 0.689-0.996 0.376-1.887 0.955-2.628 1.713-0.752 0.741-1.337 1.638-1.708 2.622-0.365 0.944-0.619 2.020-0.689 3.594-0.075 1.586-0.093 2.090-0.093 6.112s0.017 4.526 0.087 6.106c0.069 1.574 0.324 2.657 0.689 3.595 0.376 0.996 0.961 1.887 1.713 2.628 0.741 0.753 1.638 1.337 2.622 1.708 0.944 0.365 2.020 0.619 3.595 0.689 1.58 0.070 2.084 0.087 6.107 0.087s4.526-0.017 6.107-0.087c1.574-0.069 2.657-0.324 3.594-0.689 1.991-0.77 3.566-2.344 4.335-4.335 0.365-0.943 0.619-2.020 0.689-3.595 0.069-1.58 0.087-2.084 0.087-6.106s-0.006-4.526-0.075-6.107zM27.228 21.993c-0.064 1.447-0.307 2.228-0.509 2.749-0.498 1.291-1.522 2.315-2.813 2.813-0.521 0.203-1.308 0.446-2.749 0.509-1.563 0.070-2.031 0.087-5.985 0.087s-4.428-0.017-5.985-0.087c-1.447-0.064-2.228-0.307-2.749-0.509-0.642-0.237-1.227-0.614-1.702-1.106-0.492-0.481-0.868-1.059-1.106-1.702-0.203-0.521-0.446-1.308-0.509-2.749-0.070-1.563-0.087-2.032-0.087-5.985s0.017-4.428 0.087-5.985c0.064-1.447 0.307-2.228 0.509-2.749 0.237-0.643 0.614-1.227 1.111-1.702 0.48-0.492 1.059-0.868 1.702-1.105 0.521-0.203 1.308-0.446 2.749-0.509 1.563-0.069 2.032-0.087 5.985-0.087 3.959 0 4.428 0.017 5.985 0.087 1.447 0.064 2.229 0.307 2.749 0.509 0.642 0.237 1.227 0.613 1.702 1.105 0.492 0.48 0.868 1.059 1.106 1.702 0.203 0.521 0.446 1.308 0.509 2.749 0.069 1.563 0.087 2.032 0.087 5.985s-0.017 4.416-0.087 5.979z"></path>
<path fill="#afb1b8" style="fill: var(--color2, #afb1b8)" d="M15.166 8.391c-4.202 0-7.611 3.409-7.611 7.611s3.409 7.611 7.611 7.611c4.202 0 7.611-3.409 7.611-7.611s-3.409-7.611-7.611-7.611zM15.166 20.94c-2.726 0-4.937-2.211-4.937-4.937s2.211-4.937 4.937-4.937c2.726 0 4.937 2.211 4.937 4.937s-2.211 4.937-4.937 4.937z"></path>
<path fill="#afb1b8" style="fill: var(--color2, #afb1b8)" d="M24.855 8.090c0 0.981-0.796 1.777-1.777 1.777s-1.777-0.796-1.777-1.777c0-0.982 0.796-1.777 1.777-1.777s1.777 0.795 1.777 1.777z"></path>
</symbol>
<symbol id="icon-linkedin-1" viewBox="0 0 31 32">
<path fill="#afb1b8" style="fill: var(--color2, #afb1b8)" d="M29.918 30.815v-0.001h0.007v-10.867c0-5.316-1.144-9.411-7.359-9.411-2.988 0-4.993 1.639-5.811 3.194h-0.086v-2.698h-5.893v19.781h6.136v-9.795c0-2.579 0.489-5.073 3.683-5.073 3.147 0 3.194 2.943 3.194 5.238v9.631h6.13z"></path>
<path fill="#afb1b8" style="fill: var(--color2, #afb1b8)" d="M0.785 11.033h6.143v19.782h-6.143v-19.782z"></path>
<path fill="#afb1b8" style="fill: var(--color2, #afb1b8)" d="M3.854 1.185c-1.964 0-3.558 1.594-3.558 3.558s1.594 3.591 3.558 3.591c1.964 0 3.558-1.627 3.558-3.591-0.001-1.964-1.595-3.558-3.558-3.558v0z"></path>
</symbol>
<symbol id="icon-twiter" viewBox="0 0 32 32">
<path fill="#fff" style="fill: var(--color1, #fff)" d="M31.858 16c0 4.32-1.751 8.231-4.582 11.062s-6.742 4.582-11.062 4.582c-4.32 0-8.231-1.751-11.062-4.582s-4.582-6.742-4.582-11.062c0-4.32 1.751-8.231 4.582-11.062s6.742-4.582 11.062-4.582c4.32 0 8.231 1.751 11.062 4.582s4.582 6.742 4.582 11.062z"></path>
<path fill="#afb1b8" style="fill: var(--color2, #afb1b8)" d="M23.324 11.59c-0.529 0.232-1.092 0.386-1.68 0.46 0.604-0.361 1.066-0.928 1.283-1.612-0.564 0.336-1.186 0.573-1.849 0.706-0.535-0.57-1.298-0.923-2.13-0.923-1.614 0-2.914 1.31-2.914 2.916 0 0.231 0.020 0.453 0.068 0.665-2.424-0.118-4.569-1.28-6.010-3.050-0.252 0.436-0.399 0.936-0.399 1.474 0 1.010 0.52 1.905 1.295 2.423-0.468-0.009-0.928-0.145-1.317-0.359 0 0.009 0 0.020 0 0.032 0 1.417 1.011 2.594 2.336 2.865-0.237 0.065-0.496 0.096-0.764 0.096-0.187 0-0.375-0.011-0.552-0.050 0.378 1.155 1.45 2.004 2.724 2.031-0.992 0.776-2.252 1.244-3.615 1.244-0.239 0-0.468-0.011-0.698-0.040 1.292 0.833 2.822 1.308 4.473 1.308 5.365 0 8.299-4.444 8.299-8.297 0-0.129-0.004-0.253-0.011-0.377 0.579-0.411 1.065-0.924 1.461-1.514z"></path>
</symbol>
</defs>
</svg>
